<svg width="81" height="55" viewBox="0 0 81 55" fill="none" xmlns="http://www.w3.org/2000/svg">
<path fill-rule="evenodd" clip-rule="evenodd" d="M66.0955 27.3503C66.0955 42.3856 54.2899 54.2759 39.5558 54.2759C24.8216 54.2759 12.8599 42.2795 12.8599 27.2441C12.8599 12.2088 24.7305 0 39.4646 0C54.1988 0 66.0955 12.3282 66.0955 27.3503Z" fill="#FCFFF7"/>
<path fill-rule="evenodd" clip-rule="evenodd" d="M15.7885 28.465C15.5282 25.9171 13.6539 24.9882 13.4065 21.5777C13.0421 23.3692 12.8469 25.2403 12.8469 27.138C12.8469 30.8802 13.5888 34.45 14.9424 37.7012C14.4999 33.5741 16.1399 31.8224 15.7885 28.465Z" fill="#222C37"/>
<path fill-rule="evenodd" clip-rule="evenodd" d="M26.3575 3.51666C23.2206 5.33471 20.4742 7.77646 18.2875 10.6959C23.3117 6.3698 28.375 6.92715 29.2731 6.13093C30.4185 5.10911 25.4333 4.69773 25.4333 4.69773C25.4333 4.69773 25.6286 4.18018 26.3575 3.51666Z" fill="#222C37"/>
<path fill-rule="evenodd" clip-rule="evenodd" d="M47.5346 51.5157C42.2501 48.7554 46.0898 44.7743 47.5737 43.3013C49.0575 41.8283 53.3788 37.1306 49.8905 33.4945C46.4022 29.8584 45.8816 25.8507 47.7559 22.135C49.6302 18.4193 53.3137 19.2288 55.3833 20.9141C57.4528 22.6127 60.4726 25.5322 62.0084 24.6033C64.4034 23.117 61.9434 20.025 61.9434 20.025C61.9434 20.025 61.8523 23.1568 61.1754 23.1568C60.4856 23.1568 60.3554 19.826 59.8998 19.5207C58.5982 19.0297 59.4183 21.9758 57.0363 20.6487C54.6544 19.3217 55.5134 16.1633 56.5938 14.7965C57.6741 13.4296 59.4833 15.4733 59.978 15.9112C60.4595 16.3491 61.4097 16.8534 62.477 16.8534C63.232 16.8534 64.872 20.7018 65.7701 22.971C63.7916 9.96607 52.7671 0.0132751 39.4647 0.0132751C37.1869 0.0132751 34.9741 0.305224 32.8525 0.86258C33.7246 0.703335 34.7008 0.570631 35.7941 0.491009C44.8403 -0.252133 47.886 2.14981 47.5997 3.34414C47.3133 4.53848 46.9879 5.12238 45.8295 5.00294C44.6841 4.88351 43.4996 4.41904 42.7838 5.36124C42.0679 6.31671 41.365 6.19728 40.6491 5.89206C39.9332 5.58684 39.4386 5.82571 38.9961 6.5025C38.5535 7.17929 37.6034 9.03714 36.9005 8.33381C36.1976 7.63048 36.3278 7.94897 36.5491 7.25891C36.7703 6.55558 37.7075 5.82571 37.278 5.75935C36.8484 5.693 32.3058 5.61338 29.2471 8.90444C32.6052 8.90444 36.9396 9.54141 36.2237 14.823C35.5078 20.1046 31.2385 22.6924 26.6309 26.6868C22.0232 30.6811 16.6866 39.6785 22.7521 45.4909C21.5936 45.6103 20.4873 45.4776 19.485 45.0662C24.3661 50.7327 31.5119 54.3024 39.4907 54.3024C43.1742 54.3024 46.6886 53.5328 49.8905 52.1526C49.0445 52.0863 48.2505 51.8872 47.5346 51.5157ZM39.9723 9.31582C39.2043 10.7225 37.8637 10.6429 37.4992 10.4173C37.1348 10.1917 37.0046 10.2315 38.0589 9.27601C39.1132 8.32054 40.7402 7.90916 39.9723 9.31582Z" fill="#222C37"/>
<path fill-rule="evenodd" clip-rule="evenodd" d="M70.0133 27.483C68.3993 27.2308 66.8244 27.2441 66.0824 27.2706C66.0824 27.2972 66.0824 27.3237 66.0824 27.3503C66.0824 28.8763 65.9523 30.3759 65.718 31.8356C66.4469 31.7693 68.113 31.6897 70.0003 32.1674C78.4737 34.649 77.8359 45.1326 68.2691 45.1326C45.7774 45.1326 36.9916 5.13562 16.0358 5.13562C7.11978 5.13562 0 11.4523 0 18.2866C0 24.391 3.86576 31.3314 12.4824 32.7778L13.4456 32.9371C13.1202 31.4375 12.9249 29.8849 12.8599 28.3057L12.4824 28.2526C-0.598739 25.5986 3.55338 9.32906 15.7364 9.32906C34.1801 9.32906 43.0441 49.3658 68.5295 49.3658C73.6968 49.3658 80.348 46.3004 80.348 39.214C80.3611 33.1627 75.9746 28.5844 70.0133 27.483Z" fill="#E5E5E5"/>
</svg>
